<svg width="80" height="80" viewBox="0 0 80 80" fill="none" xmlns="http://www.w3.org/2000/svg">
<g opacity="0.6" clip-path="url(#clip0)">
<path d="M80.0001 29.7797V75.0208H19.1664C18.1475 75.0208 17.3232 74.195 17.3232 73.1777V23.5472C17.3232 22.5283 18.1475 21.7041 19.1664 21.7041H41.5181C42.0057 21.7041 42.4742 21.8972 42.8203 22.2433L47.9743 27.3974C48.3204 27.7435 48.7889 27.9366 49.2781 27.9366H78.157C79.1743 27.9368 80.0001 28.7625 80.0001 29.7797Z" fill="#756F6F"/>
<path d="M50.6346 36.9234C53.116 36.9234 55.1275 34.9119 55.1275 32.4305C55.1275 29.9491 53.116 27.9375 50.6346 27.9375C48.1532 27.9375 46.1416 29.9491 46.1416 32.4305C46.1416 34.9119 48.1532 36.9234 50.6346 36.9234Z" fill="#5B5555"/>
<path d="M34.1425 43.0354C34.9537 43.8451 34.3807 45.2325 33.2331 45.2325H19.0456C18.4645 45.2325 17.8898 45.2035 17.3232 45.1488V23.5472C17.3232 22.5283 18.1475 21.7041 19.1664 21.7041H35.184C35.9309 23.6372 36.3414 25.7396 36.3414 27.9368C36.3414 32.7127 34.405 37.0361 31.2757 40.1669L34.1425 43.0354Z" fill="#5B5555"/>
<path d="M80.0002 29.7796V75.0207H73.8802V29.7796C73.8802 28.7623 73.056 27.9365 72.0371 27.9365H78.1569C79.1744 27.9367 80.0002 28.7625 80.0002 29.7796Z" fill="#5B5555"/>
<path d="M61.2031 51.9096L80.0001 75.0215H18.199C17.6443 75.0215 17.1193 74.7717 16.7693 74.3414L0.41665 54.2351C-0.562725 53.0309 0.29415 51.2295 1.84634 51.2295H59.7732C60.3281 51.2295 60.8532 51.4793 61.2031 51.9096Z" fill="#64B9FC"/>
<path d="M79.9999 75.0209H72.074L53.278 51.9095C52.9271 51.4796 52.4024 51.2285 51.8486 51.2285H59.773C60.3283 51.2285 60.853 51.4796 61.2024 51.9095L79.9999 75.0209Z" fill="#31A7FB"/>
<path d="M66.0043 69.6007H49.7439C49.2412 69.6007 48.7675 69.3659 48.4629 68.9659L44.2957 63.4904C43.8925 62.9606 44.2704 62.1982 44.9362 62.1982H61.1967C61.6993 62.1982 62.1731 62.4331 62.4776 62.8331L66.6448 68.3086C67.0481 68.8382 66.6703 69.6007 66.0043 69.6007Z" fill="#F8F3F1"/>
<path d="M66.0046 69.5999H60.7732C61.4396 69.5999 61.8179 68.8385 61.4138 68.3074L57.2465 62.833C56.9423 62.4323 56.469 62.1973 55.9668 62.1973H61.1966C61.7004 62.1973 62.1737 62.4323 62.4779 62.833L66.6452 68.3074C67.0476 68.8387 66.671 69.5999 66.0046 69.5999Z" fill="#EFE2DD"/>
<path d="M39.9997 70.807H32.6134C31.9467 70.807 31.4062 70.2665 31.4062 69.5998C31.4062 68.933 31.9467 68.3926 32.6134 68.3926H39.9997C40.6664 68.3926 41.2069 68.933 41.2069 69.5998C41.2069 70.2665 40.6664 70.807 39.9997 70.807Z" fill="#F8F3F1"/>
<path d="M37.3043 66.803H34.1691C33.5024 66.803 32.9619 66.2626 32.9619 65.5959C32.9619 64.9291 33.5024 64.3887 34.1691 64.3887H37.3043C37.971 64.3887 38.5114 64.9291 38.5114 65.5959C38.5116 66.2626 37.9711 66.803 37.3043 66.803Z" fill="#F8F3F1"/>
<path d="M36.3416 22.2753C36.3416 12.7231 28.598 4.97949 19.0459 4.97949C9.50266 4.97949 1.75 12.7321 1.75 22.2754C1.75016 31.8276 9.49359 39.5711 19.0458 39.5711H33.2333C34.3803 39.5711 34.9548 38.1842 34.1437 37.3731L31.2758 34.5051C34.4058 31.3754 36.3416 27.0514 36.3416 22.2753Z" fill="#31A7FB"/>
<path d="M34.143 37.3741C34.9543 38.1854 34.3813 39.5713 33.2337 39.5713H27.4002C28.5463 39.5713 29.121 38.1854 28.3096 37.3741L26.5312 35.5947C25.9396 35.0029 25.9021 34.0582 26.4415 33.4183C28.9787 30.409 30.5084 26.5202 30.5084 22.2755C30.5084 13.7186 24.2935 6.61192 16.1309 5.22598C16.9207 5.09051 17.7285 5.00989 18.5505 4.9866C28.2232 4.7141 36.1784 12.3057 36.3393 21.9808C36.4207 26.8732 34.4695 31.3121 31.2762 34.5055L34.143 37.3741Z" fill="#1C96F9"/>
<path d="M22.4605 22.2758L25.6779 19.0584C26.6208 18.1155 26.6208 16.5867 25.6779 15.6439C24.735 14.7009 23.2061 14.7009 22.2633 15.6439L19.046 18.8613L15.8288 15.6437C14.886 14.7008 13.3571 14.7008 12.4143 15.6437C11.4713 16.5866 11.4713 18.1153 12.4143 19.0583L15.6316 22.2756L12.4143 25.493C11.4713 26.4359 11.4713 27.9647 12.4143 28.9075C12.8857 29.3791 13.5036 29.6147 14.1216 29.6147C14.7396 29.6147 15.3574 29.3789 15.8289 28.9075L19.0463 25.6902L22.2636 28.9075C22.7352 29.3791 23.3529 29.6147 23.971 29.6147C24.5888 29.6147 25.2068 29.3789 25.6783 28.9075C26.6213 27.9647 26.6213 26.4359 25.6783 25.493L22.4605 22.2758Z" fill="#F8F3F1"/>
<path d="M50.6355 33.1187C53.1169 33.1187 55.1285 31.1072 55.1285 28.6258C55.1285 26.1444 53.1169 24.1328 50.6355 24.1328C48.1541 24.1328 46.1426 26.1444 46.1426 28.6258C46.1426 31.1072 48.1541 33.1187 50.6355 33.1187Z" fill="#BCEA73"/>
<path d="M55.128 28.6252C55.128 31.1075 53.1158 33.1197 50.6355 33.1197C49.8039 33.1197 49.0238 32.8937 48.3564 32.4975C50.1202 32.0909 51.4343 30.512 51.4343 28.6252C51.4343 26.7403 50.1222 25.1594 48.3585 24.7528C49.0258 24.3586 49.8039 24.1328 50.6355 24.1328C53.116 24.1327 55.128 26.1448 55.128 28.6252Z" fill="#99D53B"/>
<path d="M66.3708 23.2397C68.329 23.2397 69.9164 21.6523 69.9164 19.6941C69.9164 17.7359 68.329 16.1484 66.3708 16.1484C64.4126 16.1484 62.8252 17.7359 62.8252 19.6941C62.8252 21.6523 64.4126 23.2397 66.3708 23.2397Z" fill="#BCEA73"/>
<path d="M69.916 19.6937C69.916 21.6527 68.3282 23.2405 66.3709 23.2405C65.7146 23.2405 65.099 23.0622 64.5723 22.7495C65.9641 22.4287 67.001 21.1827 67.001 19.6937C67.001 18.2062 65.9657 16.9587 64.5738 16.6378C65.1004 16.3267 65.7145 16.1484 66.3707 16.1484C68.3282 16.1484 69.916 17.7364 69.916 19.6937Z" fill="#99D53B"/>
<path d="M58.2691 13.2132L58.9223 12.56C59.3938 12.0885 59.3938 11.3243 58.9223 10.8527C58.4509 10.3813 57.6865 10.3813 57.2149 10.8527L56.5618 11.5058L55.9087 10.8527C55.4373 10.3811 54.6729 10.3811 54.2013 10.8527C53.7298 11.3241 53.7298 12.0885 54.2013 12.56L54.8545 13.2132L54.2013 13.8663C53.7298 14.3379 53.7298 15.1021 54.2013 15.5736C54.4371 15.8094 54.746 15.9272 55.0549 15.9272C55.3638 15.9272 55.6729 15.8093 55.9085 15.5736L56.5616 14.9205L57.2148 15.5736C57.4505 15.8094 57.7595 15.9272 58.0684 15.9272C58.3773 15.9272 58.6863 15.8093 58.9219 15.5736C59.3935 15.1022 59.3935 14.3379 58.9219 13.8663L58.2691 13.2132Z" fill="#64B9FC"/>
<path d="M9.0398 40.6202C8.5684 40.1488 7.80402 40.1488 7.33246 40.6202L6.19527 41.7573L5.05809 40.6202C4.58668 40.1488 3.8223 40.1488 3.35074 40.6202C2.87918 41.0916 2.87918 41.8559 3.35074 42.3275L4.48793 43.4647L3.35074 44.6019C2.87918 45.0733 2.87918 45.8377 3.35074 46.3092C3.58652 46.545 3.89543 46.6628 4.20434 46.6628C4.51324 46.6628 4.8223 46.5448 5.05793 46.3092L6.19512 45.172L7.3323 46.3092C7.56809 46.545 7.87699 46.6628 8.1859 46.6628C8.4948 46.6628 8.80387 46.5448 9.03949 46.3092C9.51105 45.8378 9.51105 45.0734 9.03949 44.6019L7.9023 43.4647L9.03949 42.3275C9.51121 41.8559 9.51121 41.0916 9.0398 40.6202Z" fill="#A8E7EF"/>
</g>
<defs>
<clipPath id="clip0">
<rect width="80" height="80" fill="white"/>
</clipPath>
</defs>
</svg>
